<?xml version="1.0" encoding="UTF-8"?>
<!DOCTYPE svg
PUBLIC "-//W3C//DTD SVG 1.1//EN"
       "http://www.w3.org/Graphics/SVG/1.1/DTD/svg11.dtd">
<svg version="1.1" xmlns="http://www.w3.org/2000/svg" xmlns:xlink="http://www.w3.org/1999/xlink" viewBox="0 0 129.741 129.841">
    <style>
        path {
            fill: #000;
        }
        @media (prefers-color-scheme: dark) {
            path {
                fill: #fff;
            }
        }
    </style>
    <path fill-rule="evenodd" d="M0 0h16v16H0z"/>
 <g>
  <rect height="129.841" opacity="0" width="129.741" x="0" y="0"/>
  <path d="M64.8457 129.741C100.356 129.741 129.741 100.356 129.741 64.8955C129.741 29.3848 100.406 0 64.8955 0C61.6582 0 60.2139 1.84277 60.2139 4.83105L60.2139 29.9326C60.2139 32.373 61.8076 34.2656 64.2979 34.2656C66.7383 34.2656 68.332 32.373 68.332 29.9326L68.332 4.2832L64.6963 9.31348C95.7246 9.31348 120.378 34.0664 120.378 64.8955C120.378 95.6748 95.6748 120.478 64.8457 120.478C34.0664 120.478 9.21387 95.6748 9.26367 64.8955C9.31348 50.8008 14.543 38.001 23.1094 28.2393C24.8027 26.1475 24.9521 23.5576 23.1094 21.665C21.3164 19.7227 18.3281 19.8721 16.3359 22.2627C6.22559 33.7178 0 48.6592 0 64.8955C0 100.356 29.3848 129.741 64.8457 129.741Z" fill="black" fill-opacity="0.85"/>
  <path d="M64.8457 74.707C70.3242 74.707 74.707 70.3242 74.707 64.8955C74.707 61.5586 73.0635 58.6699 70.4736 56.8271L38.25 33.8174C35.3613 31.7754 32.373 34.7139 34.415 37.7021L56.2793 69.7764C58.2715 72.7148 61.2598 74.707 64.8457 74.707Z" fill="black" fill-opacity="0.85"/>
 </g>
</svg>
